<mxfile host="app.diagrams.net" modified="2024-02-05T07:57:25.420Z" agent="Mozilla/5.0 (Windows NT 10.0; Win64; x64) AppleWebKit/537.36 (KHTML, like Gecko) Chrome/121.0.0.0 Safari/537.36" etag="o7B3KM-XFWDaQOTH0-Kz" version="23.1.1" type="google">
  <diagram name="Page-1" id="go7dMpUcjNm07JayWFUk">
    <mxGraphModel grid="1" page="1" gridSize="10" guides="1" tooltips="1" connect="1" arrows="1" fold="1" pageScale="1" pageWidth="827" pageHeight="1169" math="0" shadow="0">
      <root>
        <mxCell id="0" />
        <mxCell id="1" parent="0" />
        <mxCell id="JmSo3z0YNMJdQA7CzGK7-14" value="" style="edgeStyle=orthogonalEdgeStyle;rounded=0;orthogonalLoop=1;jettySize=auto;html=1;entryX=0.5;entryY=0;entryDx=0;entryDy=0;" edge="1" parent="1" source="8w_SmIsG9wQgSFzhQo5m-1" target="JmSo3z0YNMJdQA7CzGK7-4">
          <mxGeometry relative="1" as="geometry" />
        </mxCell>
        <mxCell id="JmSo3z0YNMJdQA7CzGK7-16" value="" style="edgeStyle=orthogonalEdgeStyle;rounded=0;orthogonalLoop=1;jettySize=auto;html=1;entryX=0.5;entryY=0;entryDx=0;entryDy=0;" edge="1" parent="1" source="8w_SmIsG9wQgSFzhQo5m-1" target="JmSo3z0YNMJdQA7CzGK7-8">
          <mxGeometry relative="1" as="geometry" />
        </mxCell>
        <mxCell id="JmSo3z0YNMJdQA7CzGK7-18" value="" style="edgeStyle=orthogonalEdgeStyle;rounded=0;orthogonalLoop=1;jettySize=auto;html=1;entryX=0.5;entryY=0;entryDx=0;entryDy=0;" edge="1" parent="1" source="8w_SmIsG9wQgSFzhQo5m-1" target="JmSo3z0YNMJdQA7CzGK7-17">
          <mxGeometry relative="1" as="geometry" />
        </mxCell>
        <mxCell id="JmSo3z0YNMJdQA7CzGK7-22" value="" style="edgeStyle=orthogonalEdgeStyle;rounded=0;orthogonalLoop=1;jettySize=auto;html=1;" edge="1" parent="1" source="8w_SmIsG9wQgSFzhQo5m-1" target="JmSo3z0YNMJdQA7CzGK7-3">
          <mxGeometry relative="1" as="geometry" />
        </mxCell>
        <mxCell id="8w_SmIsG9wQgSFzhQo5m-1" value="App&amp;nbsp;" style="rounded=0;whiteSpace=wrap;html=1;" vertex="1" parent="1">
          <mxGeometry x="320" y="80" width="120" height="40" as="geometry" />
        </mxCell>
        <mxCell id="JmSo3z0YNMJdQA7CzGK7-1" value="Navbar" style="rounded=0;whiteSpace=wrap;html=1;" vertex="1" parent="1">
          <mxGeometry x="240" y="160" width="80" height="40" as="geometry" />
        </mxCell>
        <mxCell id="JmSo3z0YNMJdQA7CzGK7-2" value="" style="endArrow=classic;html=1;rounded=0;exitX=0;exitY=0.5;exitDx=0;exitDy=0;entryX=0.5;entryY=0;entryDx=0;entryDy=0;" edge="1" parent="1" source="8w_SmIsG9wQgSFzhQo5m-1" target="JmSo3z0YNMJdQA7CzGK7-1">
          <mxGeometry width="50" height="50" relative="1" as="geometry">
            <mxPoint x="390" y="340" as="sourcePoint" />
            <mxPoint x="440" y="290" as="targetPoint" />
            <Array as="points">
              <mxPoint x="280" y="100" />
            </Array>
          </mxGeometry>
        </mxCell>
        <mxCell id="JmSo3z0YNMJdQA7CzGK7-3" value="Connecter" style="rounded=0;whiteSpace=wrap;html=1;" vertex="1" parent="1">
          <mxGeometry x="360" y="160" width="80" height="40" as="geometry" />
        </mxCell>
        <mxCell id="JmSo3z0YNMJdQA7CzGK7-11" value="" style="edgeStyle=orthogonalEdgeStyle;rounded=0;orthogonalLoop=1;jettySize=auto;html=1;" edge="1" parent="1" source="JmSo3z0YNMJdQA7CzGK7-4" target="JmSo3z0YNMJdQA7CzGK7-5">
          <mxGeometry relative="1" as="geometry" />
        </mxCell>
        <mxCell id="JmSo3z0YNMJdQA7CzGK7-4" value="Liste de jeux" style="rounded=0;whiteSpace=wrap;html=1;" vertex="1" parent="1">
          <mxGeometry x="600" y="160" width="80" height="40" as="geometry" />
        </mxCell>
        <mxCell id="JmSo3z0YNMJdQA7CzGK7-12" value="" style="edgeStyle=orthogonalEdgeStyle;rounded=0;orthogonalLoop=1;jettySize=auto;html=1;" edge="1" parent="1" source="JmSo3z0YNMJdQA7CzGK7-5" target="JmSo3z0YNMJdQA7CzGK7-10">
          <mxGeometry relative="1" as="geometry" />
        </mxCell>
        <mxCell id="JmSo3z0YNMJdQA7CzGK7-13" value="" style="edgeStyle=orthogonalEdgeStyle;rounded=0;orthogonalLoop=1;jettySize=auto;html=1;entryX=0.5;entryY=0;entryDx=0;entryDy=0;" edge="1" parent="1" source="JmSo3z0YNMJdQA7CzGK7-5" target="JmSo3z0YNMJdQA7CzGK7-9">
          <mxGeometry relative="1" as="geometry" />
        </mxCell>
        <mxCell id="JmSo3z0YNMJdQA7CzGK7-5" value="Cards (jeux)" style="rounded=0;whiteSpace=wrap;html=1;" vertex="1" parent="1">
          <mxGeometry x="600" y="240" width="80" height="40" as="geometry" />
        </mxCell>
        <mxCell id="JmSo3z0YNMJdQA7CzGK7-8" value="Inscrire" style="rounded=0;whiteSpace=wrap;html=1;" vertex="1" parent="1">
          <mxGeometry x="480" y="160" width="80" height="40" as="geometry" />
        </mxCell>
        <mxCell id="JmSo3z0YNMJdQA7CzGK7-9" value="Boutons" style="rounded=0;whiteSpace=wrap;html=1;" vertex="1" parent="1">
          <mxGeometry x="540" y="320" width="80" height="40" as="geometry" />
        </mxCell>
        <mxCell id="JmSo3z0YNMJdQA7CzGK7-10" value="Champs (input)" style="rounded=0;whiteSpace=wrap;html=1;" vertex="1" parent="1">
          <mxGeometry x="660" y="320" width="80" height="40" as="geometry" />
        </mxCell>
        <mxCell id="JmSo3z0YNMJdQA7CzGK7-23" value="" style="edgeStyle=orthogonalEdgeStyle;rounded=0;orthogonalLoop=1;jettySize=auto;html=1;entryX=0.5;entryY=0;entryDx=0;entryDy=0;" edge="1" parent="1" source="JmSo3z0YNMJdQA7CzGK7-17" target="JmSo3z0YNMJdQA7CzGK7-20">
          <mxGeometry relative="1" as="geometry" />
        </mxCell>
        <mxCell id="JmSo3z0YNMJdQA7CzGK7-24" value="" style="edgeStyle=orthogonalEdgeStyle;rounded=0;orthogonalLoop=1;jettySize=auto;html=1;entryX=0.5;entryY=0;entryDx=0;entryDy=0;" edge="1" parent="1" source="JmSo3z0YNMJdQA7CzGK7-17" target="JmSo3z0YNMJdQA7CzGK7-26">
          <mxGeometry relative="1" as="geometry">
            <Array as="points">
              <mxPoint x="160" y="220" />
              <mxPoint x="310" y="220" />
            </Array>
          </mxGeometry>
        </mxCell>
        <mxCell id="JmSo3z0YNMJdQA7CzGK7-17" value="Profil" style="rounded=0;whiteSpace=wrap;html=1;" vertex="1" parent="1">
          <mxGeometry x="120" y="160" width="80" height="40" as="geometry" />
        </mxCell>
        <mxCell id="JmSo3z0YNMJdQA7CzGK7-20" value="Avatar" style="rounded=0;whiteSpace=wrap;html=1;" vertex="1" parent="1">
          <mxGeometry x="70" y="240" width="80" height="40" as="geometry" />
        </mxCell>
        <mxCell id="JmSo3z0YNMJdQA7CzGK7-21" value="Boutons / champs" style="rounded=0;whiteSpace=wrap;html=1;" vertex="1" parent="1">
          <mxGeometry x="170" y="240" width="80" height="40" as="geometry" />
        </mxCell>
        <mxCell id="JmSo3z0YNMJdQA7CzGK7-26" value="Liste personnelle" style="rounded=0;whiteSpace=wrap;html=1;" vertex="1" parent="1">
          <mxGeometry x="270" y="240" width="80" height="40" as="geometry" />
        </mxCell>
        <mxCell id="JmSo3z0YNMJdQA7CzGK7-28" value="" style="edgeStyle=orthogonalEdgeStyle;rounded=0;orthogonalLoop=1;jettySize=auto;html=1;entryX=0.5;entryY=0;entryDx=0;entryDy=0;" edge="1" parent="1" target="JmSo3z0YNMJdQA7CzGK7-21">
          <mxGeometry relative="1" as="geometry">
            <mxPoint x="160" y="200" as="sourcePoint" />
            <mxPoint x="320" y="250" as="targetPoint" />
            <Array as="points">
              <mxPoint x="160" y="220" />
              <mxPoint x="210" y="220" />
            </Array>
          </mxGeometry>
        </mxCell>
        <mxCell id="JmSo3z0YNMJdQA7CzGK7-33" value="" style="edgeStyle=orthogonalEdgeStyle;rounded=0;orthogonalLoop=1;jettySize=auto;html=1;" edge="1" parent="1" source="JmSo3z0YNMJdQA7CzGK7-30" target="JmSo3z0YNMJdQA7CzGK7-32">
          <mxGeometry relative="1" as="geometry" />
        </mxCell>
        <mxCell id="JmSo3z0YNMJdQA7CzGK7-30" value="CarteBar" style="rounded=0;whiteSpace=wrap;html=1;" vertex="1" parent="1">
          <mxGeometry x="720" y="160" width="80" height="40" as="geometry" />
        </mxCell>
        <mxCell id="JmSo3z0YNMJdQA7CzGK7-31" value="" style="edgeStyle=orthogonalEdgeStyle;rounded=0;orthogonalLoop=1;jettySize=auto;html=1;entryX=0.5;entryY=0;entryDx=0;entryDy=0;" edge="1" parent="1" target="JmSo3z0YNMJdQA7CzGK7-30">
          <mxGeometry relative="1" as="geometry">
            <mxPoint x="440" y="100" as="sourcePoint" />
            <mxPoint x="640" y="160" as="targetPoint" />
          </mxGeometry>
        </mxCell>
        <mxCell id="JmSo3z0YNMJdQA7CzGK7-32" value="Map" style="rounded=0;whiteSpace=wrap;html=1;" vertex="1" parent="1">
          <mxGeometry x="720" y="240" width="80" height="40" as="geometry" />
        </mxCell>
        <mxCell id="JmSo3z0YNMJdQA7CzGK7-38" value="" style="edgeStyle=orthogonalEdgeStyle;rounded=0;orthogonalLoop=1;jettySize=auto;html=1;" edge="1" parent="1" source="JmSo3z0YNMJdQA7CzGK7-34" target="JmSo3z0YNMJdQA7CzGK7-37">
          <mxGeometry relative="1" as="geometry" />
        </mxCell>
        <mxCell id="JmSo3z0YNMJdQA7CzGK7-34" value="Amis" style="rounded=0;whiteSpace=wrap;html=1;" vertex="1" parent="1">
          <mxGeometry x="370" y="240" width="80" height="40" as="geometry" />
        </mxCell>
        <mxCell id="JmSo3z0YNMJdQA7CzGK7-36" value="" style="edgeStyle=orthogonalEdgeStyle;rounded=0;orthogonalLoop=1;jettySize=auto;html=1;entryX=0.5;entryY=0;entryDx=0;entryDy=0;" edge="1" parent="1" target="JmSo3z0YNMJdQA7CzGK7-34">
          <mxGeometry relative="1" as="geometry">
            <mxPoint x="160" y="200" as="sourcePoint" />
            <mxPoint x="310" y="240" as="targetPoint" />
            <Array as="points">
              <mxPoint x="160" y="220" />
              <mxPoint x="410" y="220" />
            </Array>
          </mxGeometry>
        </mxCell>
        <mxCell id="JmSo3z0YNMJdQA7CzGK7-37" value="Avatar" style="rounded=0;whiteSpace=wrap;html=1;" vertex="1" parent="1">
          <mxGeometry x="370" y="300" width="80" height="40" as="geometry" />
        </mxCell>
        <mxCell id="_SkZUBm3KkGQRLnQZScY-1" value="Jeu unique" style="rounded=0;whiteSpace=wrap;html=1;" vertex="1" parent="1">
          <mxGeometry x="270" y="300" width="80" height="40" as="geometry" />
        </mxCell>
        <mxCell id="_SkZUBm3KkGQRLnQZScY-2" value="" style="endArrow=classic;html=1;rounded=0;entryX=0.5;entryY=0;entryDx=0;entryDy=0;exitX=0.5;exitY=1;exitDx=0;exitDy=0;" edge="1" parent="1" source="JmSo3z0YNMJdQA7CzGK7-26" target="_SkZUBm3KkGQRLnQZScY-1">
          <mxGeometry width="50" height="50" relative="1" as="geometry">
            <mxPoint x="330" y="330" as="sourcePoint" />
            <mxPoint x="380" y="280" as="targetPoint" />
          </mxGeometry>
        </mxCell>
      </root>
    </mxGraphModel>
  </diagram>
</mxfile>
